<?xml version="1.0" encoding="UTF-8" standalone="no"?><!DOCTYPE svg PUBLIC "-//W3C//DTD SVG 1.1//EN" "http://www.w3.org/Graphics/SVG/1.1/DTD/svg11.dtd"><svg width="100%" height="100%" viewBox="0 0 2302 770" version="1.1" xmlns="http://www.w3.org/2000/svg" xmlns:xlink="http://www.w3.org/1999/xlink" xml:space="preserve" xmlns:serif="http://www.serif.com/" style="fill-rule:evenodd;clip-rule:evenodd;stroke-linecap:round;stroke-linejoin:round;stroke-miterlimit:1.5;"><g><g><path d="M336.911,353.17l-320.186,0l0,-320.186l320.186,0l0,320.186Zm-278.52,-278.519l0,236.853l236.853,0l0,-236.853l-236.853,0Z" style="fill:#b4b4b4;"/><path d="M77.648,183.03l95.29,95.29l178.924,-249.57" style="fill:none;stroke:#5256ac;stroke-width:57.5px;"/></g><g><path d="M841.806,353.17l-320.186,0l0,-320.186l320.186,0l0,320.186Zm-278.519,-278.519l0,236.853l236.853,0l0,-236.853l-236.853,0Z" style="fill:#b4b4b4;"/><path d="M582.544,183.03l95.29,95.29l178.924,-249.57" style="fill:none;stroke:#5256ac;stroke-width:57.5px;"/></g><path d="M1346.7,353.17l-320.186,0l0,-320.186l320.186,0l0,320.186Zm-278.519,-278.519l0,236.853l236.853,0l0,-236.853l-236.853,0Z" style="fill:#b4b4b4;"/><path d="M1815.81,353.17l-320.186,0l0,-320.186l320.186,0l0,320.186Zm-278.519,-278.519l0,236.853l236.853,0l0,-236.853l-236.853,0Z" style="fill:#b4b4b4;"/><path d="M2284.93,353.17l-320.186,0l0,-320.186l320.186,0l0,320.186Zm-278.52,-278.519l0,236.853l236.853,0l0,-236.853l-236.853,0Z" style="fill:#b4b4b4;"/><g><path d="M54.525,613.781l2185.98,0" style="fill:none;stroke:#5256ac;stroke-width:57.5px;stroke-linecap:square;"/><path d="M2264.09,613.781l-164.775,126.779" style="fill:none;stroke:#5256ac;stroke-width:57.5px;"/><path d="M2264.09,613.781l-164.775,-126.78" style="fill:none;stroke:#5256ac;stroke-width:57.5px;"/></g></g></svg>