<?xml version="1.0" encoding="UTF-8" standalone="no"?><!DOCTYPE svg PUBLIC "-//W3C//DTD SVG 1.1//EN" "http://www.w3.org/Graphics/SVG/1.1/DTD/svg11.dtd"><svg width="100%" height="100%" viewBox="0 0 2084 2084" version="1.1" xmlns="http://www.w3.org/2000/svg" xmlns:xlink="http://www.w3.org/1999/xlink" xml:space="preserve" xmlns:serif="http://www.serif.com/" style="fill-rule:evenodd;clip-rule:evenodd;"><g><circle id="Oval_6_" cx="1041.67" cy="1041.67" r="938.126" style="fill:none;stroke:#000;stroke-width:85.28px;"/><path id="Shape_6_" d="M636.567,888.155l166.304,0l0,579.933l-166.304,0l0,-579.933Zm81.02,-72.491c-59.699,0 -102.341,-42.642 -102.341,-102.341c0,-55.435 38.378,-102.341 102.341,-102.341c59.699,0 98.077,42.642 102.341,102.341c-4.264,59.699 -42.642,102.341 -102.341,102.341Zm750.501,652.424l-187.626,0l0,-298.495c0,-76.756 -29.849,-132.191 -93.812,-132.191c-51.171,0 -76.756,34.114 -89.549,72.492c-4.264,12.793 -4.264,29.849 -4.264,46.906l0,311.288l-187.625,0c0,0 4.264,-533.027 0,-579.933l187.625,0l0,89.549c12.793,-38.378 72.492,-98.077 166.304,-98.077c119.398,0 208.947,85.284 208.947,264.381l0,324.08Z" style="fill-rule:nonzero;"/></g></svg>